<?xml version="1.0" ?><svg xmlns="http://www.w3.org/2000/svg" xmlns:xlink="http://www.w3.org/1999/xlink" version="1.1" viewBox="0 0 32 32" style="enable-background:new 0 0 32 32;" xml:space="preserve"><style type="text/css">
	.st0{display:none;}
	.st1{display:inline;}
	.st2{fill:#CDF6F9;}
	.st3{fill:#FFFFFF;}
	.st4{fill:#1A83A8;}
</style><g id="Grid" class="st0"/><g id="Money"/><g id="Receipt"/><g id="Search"/><g id="Chart"/><g id="Briefcase"/><g id="Coin"/><g id="Tax"/><g id="Vision"/><g id="Contract"/><g id="Book"/><g id="Financial"/><g id="Payment_day"/><g id="Report"/><g id="Loss"/><g id="Profit"/><g id="Money_Bag"/><g id="Target"/><g id="Gold"/><g id="Safety_Box"/><g id="Wallet"/><g id="Investment"/><g id="Pie_Chart"/><g id="Home"/><g id="Assets"/><g id="Computer"><path class="st2" d="M27.078,23.281H4.922C3.308,23.281,2,21.973,2,20.359V6.078c0-1.614,1.308-2.922,2.922-2.922h22.156   C28.692,3.156,30,4.464,30,6.078v14.281C30,21.973,28.692,23.281,27.078,23.281z"/><rect x="12.443" y="23.281" class="st3" width="7.113" height="5.563"/><path class="st4" d="M16.193,12.341c-1.136-0.258-1.724-0.586-1.698-0.947c0.058-0.854,1.576-1.033,2.478-1.064   c0.071-0.006,0.069,0.012,0.096,0.037c0.021,0.02,0.044,0.054,0.044,0.104c0,0.497,0.403,0.9,0.9,0.9s0.9-0.403,0.9-0.9   c0-0.524-0.217-1.034-0.594-1.399c-0.381-0.366-0.861-0.563-1.409-0.541c-0.005,0-0.009,0.001-0.014,0.001V8.187   c0-0.497-0.403-0.9-0.9-0.9s-0.9,0.403-0.9,0.9v0.595c-1.928,0.521-2.344,1.718-2.396,2.49c-0.095,1.386,0.946,2.336,3.095,2.825   c1.081,0.245,1.722,0.596,1.713,0.936c-0.024,0.918-1.905,1.057-2.48,1.077c-0.045,0.006-0.09-0.021-0.111-0.042   c-0.028-0.027-0.042-0.062-0.042-0.101c0-0.497-0.403-0.899-0.9-0.899s-0.9,0.403-0.9,0.9c0,0.53,0.211,1.025,0.592,1.395   c0.363,0.35,0.854,0.547,1.358,0.547c0.022,0,0.045,0,0.067-0.001c0.002,0,0.004,0,0.006,0v0.342c0,0.497,0.403,0.9,0.9,0.9   s0.9-0.403,0.9-0.9v-0.593c2.091-0.568,2.393-1.927,2.409-2.577C19.342,13.74,18.294,12.819,16.193,12.341z"/><path class="st4" d="M27.078,2.256H4.922C2.814,2.256,1.1,3.971,1.1,6.078v14.28c0,2.108,1.715,3.823,3.822,3.823h6.621v3.762   h-2.38c-0.497,0-0.9,0.403-0.9,0.9s0.403,0.9,0.9,0.9h13.674c0.497,0,0.9-0.403,0.9-0.9s-0.403-0.9-0.9-0.9h-2.38v-3.762h6.621   c2.107,0,3.822-1.715,3.822-3.823V6.078C30.9,3.971,29.186,2.256,27.078,2.256z M18.656,27.943h-5.313v-3.762h5.313V27.943z    M29.1,20.358c0,1.115-0.906,2.022-2.021,2.022H4.922c-1.115,0-2.021-0.907-2.021-2.022V6.078c0-1.115,0.906-2.021,2.021-2.021   h22.156c1.115,0,2.021,0.906,2.021,2.021V20.358z"/></g></svg>